<?xml version="1.0" encoding="utf-8"?>
<svg version="1.1"  width="48" height="48" xmlns="http://www.w3.org/2000/svg" xmlns:xlink="http://www.w3.org/1999/xlink" x="0px" y="0px" viewBox="0 0 48 48" style="enable-background:new 0 0 48 48;" xml:space="preserve">
<style type="text/css">
	.st0{fill:#018837;}
	.st1{fill:#70C290;}
</style>
<g>
	<path class="st0" d="M38.5,37C38.5,37,38.5,37,38.5,37C38.5,37,38.5,36.9,38.5,37c0.1-0.1,0.1-0.1,0.1-0.1c0,0,0,0,0,0c0,0,0,0,0,0
		c0,0,0,0,0,0c0,0,0,0,0,0c0,0,0,0,0,0c0,0,0,0,0,0c0,0,0,0,0,0c0,0,0,0,0,0c0,0,0-0.1,0-0.1V4.9c0-0.5-0.4-0.9-0.9-0.9H10.1
		C9.6,4,9.2,4.4,9.2,4.9v38.4c0,0.5,0.4,0.9,0.9,0.9h21.6c0,0,0.1,0,0.1,0c0,0,0,0,0,0c0,0,0.1,0,0.1,0c0,0,0,0,0,0c0,0,0,0,0.1,0
		c0,0,0,0,0,0c0,0,0,0,0.1,0c0,0,0,0,0,0c0,0,0,0,0.1,0c0,0,0,0,0,0c0,0,0,0,0,0c0,0,0,0,0,0c0,0,0,0,0,0c0,0,0,0,0,0c0,0,0,0,0,0
		c0,0,0,0,0,0L38.5,37C38.5,37.1,38.5,37.1,38.5,37C38.5,37.1,38.5,37.1,38.5,37C38.5,37,38.5,37,38.5,37z M11,5.8h25.9v29.8h-5.2
		c-0.5,0-0.9,0.4-0.9,0.9v5.9H11V5.8z M35.8,37.4L32.6,41v-3.6H35.8z"/>
	<path class="st1" d="M32.4,25.6L32.4,25.6L32.4,25.6L32.4,25.6l0-11.8c0-0.3-0.1-0.5-0.3-0.7c-0.2-0.2-0.5-0.2-0.7-0.2l-11.1,1.7
		c-0.4,0.1-0.8,0.4-0.8,0.9v9.7c-0.3-0.1-0.5-0.1-0.8-0.1c-0.7,0-1.5,0.2-2,0.7c-0.7,0.5-1.1,1.2-1.1,1.9c-0.1,0.7,0.2,1.4,0.8,1.9
		c0.5,0.4,1.1,0.6,1.8,0.6c0.3,0,0.6,0,1-0.1c1.1-0.3,2.2-1.2,2.2-2.6V16.3l9.3-1.4l0,8.6c-0.3-0.1-0.5-0.1-0.8-0.1
		c-0.7,0-1.5,0.2-2,0.7c-0.7,0.5-1.1,1.2-1.1,1.9c-0.1,0.7,0.2,1.4,0.8,1.9c0.5,0.4,1.1,0.6,1.8,0.6c0.3,0,0.6,0,1-0.1
		C31.2,27.9,32.4,27,32.4,25.6z M18.6,28.2c-0.4,0.1-0.9,0.1-1.2-0.1c-0.1-0.1-0.2-0.2-0.2-0.3c0-0.2,0.2-0.4,0.4-0.6
		c0.3-0.2,0.6-0.3,1-0.3c0.3,0,0.5,0.1,0.7,0.2c0.1,0.1,0.2,0.2,0.2,0.3C19.5,27.7,19,28,18.6,28.2z M28.5,26.4
		c-0.1-0.1-0.2-0.2-0.2-0.3c0-0.2,0.2-0.4,0.4-0.6c0.3-0.2,0.6-0.3,1-0.3c0.3,0,0.5,0.1,0.7,0.2c0.1,0.1,0.2,0.2,0.2,0.3
		c0,0.4-0.5,0.7-0.9,0.8C29.3,26.6,28.8,26.6,28.5,26.4z"/>
</g>
</svg>
