<?xml version="1.0" encoding="utf-8"?>
<!-- Generator: Adobe Illustrator 25.2.1, SVG Export Plug-In . SVG Version: 6.00 Build 0)  -->
<svg version="1.1" id="Layer_1" xmlns="http://www.w3.org/2000/svg" xmlns:xlink="http://www.w3.org/1999/xlink" x="0px" y="0px"
	 viewBox="0 0 546 120" style="enable-background:new 0 0 546 120;" xml:space="preserve">
<style type="text/css">
	.st0{fill:#018837;}
	.st1{fill:#4E1E08;}
	.st2{fill:#888910;}
	.st3{fill:#B9C90E;}
	.st4{fill:#C3C44F;}
	.st5{fill:#80C221;}
	.st6{fill:#2D912F;}
	.st7{fill:url(#XMLID_2_);}
	.st8{fill:url(#XMLID_3_);}
</style>
<g>
	<path class="st0" d="M218.5,30.3c-5.6,12.1-10.1,29.6-11.2,41.7l-15.4,6.1c1.4-13.2,5.4-27.5,10-40c-6.1,5.4-13.5,13.2-18,19.7
		l1.3,2.4c-3.4,3.9-7.3,9.3-10.8,14.4c-3.8-9.8-7.2-21.8-8.9-32.4c-3.7,9.1-6.9,22-9.4,32.6l-14.9,3.9c3-13,6.1-26.2,10.6-37.8h2.9
		l5.7-14.7c4.2-1.5,11.5-2.9,16.5-3.6c0,7.6,1.6,17.3,3.2,24c6.8-8,17.2-18.2,25.5-25.3L218.5,30.3z"/>
	<path class="st0" d="M251.7,78.8c-1.6-5.5-2.4-11.9-2.8-18.3c-13.9,1.6-19.9,7.6-23.8,18.2l-14.1-8.4c9.3-14.9,22.5-31.6,37-42.2
		l-0.2-4.6l15-1.1c1.6,13.5-0.6,42.4,4.1,49.1L251.7,78.8z M248.9,59.3c-0.2-3.5-0.2-7-0.2-10.5c0-3.5,0-6.8,0.1-10
		c-4.8,4.5-10.7,11.3-13.8,15.9c3.4-0.3,7.4-0.6,10.2-0.8L248.9,59.3z"/>
	<path class="st0" d="M315.6,36.1c-7.3,0-15.6,0.5-23.7,1.3l10.1,3.5c-5.8,13.3-10.9,28.7-11.8,42.1c-4.8,1.2-11.6,2.6-16.6,3.2
		c1.4-17.5,8.3-35.4,14.9-48.6c-5.2,0.6-10.2,1.4-14.9,2.3l-8.3-10.7c13.2-2.4,24.7-3.2,36.4-3.8l1.3-2.2c4.2-0.3,8.6-0.5,12.8-0.5
		c2.1,0,4.2,0,6.1,0.1c0.8,3.3,1.5,9.7,1.7,13.4C321.2,36.1,318.5,36.1,315.6,36.1z"/>
	<path class="st0" d="M365.5,52.3l-2.9,0.4c-3.9,14.7-13.5,25-28.4,25c-13.9,0-20.9-9.9-20.9-21.3c0-18,13.6-33.6,32.2-33.6
		c13.9,0,20.9,9.1,20.9,21.6C366.4,46.9,366.1,49.6,365.5,52.3z M344.2,35.6c-8.4,0-13.9,6.1-17.3,16.9l2.8,0.9
		c-0.4,1.3-0.6,2.7-0.6,3.9c0,3.7,1.8,6.8,6.7,6.8c9.6,0,15.9-11.7,15.9-20.2C351.6,39.6,349.6,35.6,344.2,35.6z"/>
	<path class="st0" d="M430.7,28.7c-9.8,6-22.6,14.6-30.5,20.3c6.1,10.1,14.7,22.3,25,30.7l-15.2,6.9c-9.5-9.3-16.7-23-22-35.6
		c-2.8,8.3-5.6,17.7-8.2,26.6l-13.9-0.9c4.9-17.9,10.7-37.4,15.4-51.4c5-1.2,11.1-2.3,16.5-2.6c-2.4,6.7-5,13.8-7.5,21.4
		c3.9-3.1,8.7-6.6,12.7-9.3l-1-3.1c4.5-3.5,9.9-7.2,14.3-10L430.7,28.7z"/>
	<path class="st0" d="M447.6,36.3c-1.4,3.2-3.1,7-4.2,10c7.6-1.2,16.2-2.4,23.6-3l-7.8,11.6L445,55.5l-3.1-4.6
		c-0.9,2.7-2.8,7.5-2.8,10.3c0,3.4,2.4,4.6,5.9,4.6c5.3,0,13.2-2.7,19.8-4.6L463.2,72c-6.5,3.9-14.5,5.7-20.8,5.7
		c-11.4,0-17.6-6.1-17.6-15.1c0-6.5,5-18.2,7.6-23.9l-5.7-9.3c9.5-1.8,17.7-2.7,25-3.5l1.3-2.2c6.4-0.6,13.8-0.8,20.3-0.8
		c0.9,3.4,1.5,8.6,1.9,12.3C467,35.2,455.6,35.6,447.6,36.3z"/>
	<path class="st0" d="M536,27.9c-6.9,13.2-13.7,31.8-16.8,45.8L504.5,77c0.3-2.8,0.8-5.5,1.3-8.3c-5.8-8.5-10.5-17.2-13.1-26.7
		c-3.5,9.6-6.1,22-7.9,33.5L470.6,79c3.1-18,8-35.8,13.7-49.9c5-2.1,12.4-4.3,18.8-5.5c0.7,11.3,3.9,20.2,9.6,27.1
		c2.4-9.2,5.6-19.5,9.5-28L536,27.9z"/>
</g>
<g id="XMLID_16_">
	<path id="XMLID_79_" class="st1" d="M100.5,89.7c-0.9,1.3-1.8,2.5-0.9,3.9c0.1,0.2,0.3,0.4,0.4,0.6c1-0.7,1.6-1.7,2-2.8
		c0.3-0.8,0.2-1.6-0.3-2.4C101.3,89,100.8,89.2,100.5,89.7z"/>
	<path id="XMLID_77_" class="st1" d="M126.5,77.5c-0.3,1-1.3,1.5-0.8,3.1c0.9-0.4,1.6-0.9,1.9-1.5c0.4-0.7,0.6-1.9,0.4-3.2
		C127.3,76.5,126.6,77,126.5,77.5z"/>
	<g id="XMLID_72_">
		<path id="XMLID_75_" class="st2" d="M51.5,5c1,1.2,0.3,3,1.7,3.5c1.2,0.5-0.1,0.8,3.2,1.1c0.5-0.4,0.8-0.9,0.9-1.6
			c0.4-2-1.7-5-3.7-5.9C52.9,1.9,52,1.9,51,2.1C51,2.2,50.5,3.9,51.5,5z"/>
		<path id="XMLID_73_" class="st3" d="M52.6,12c1.6-1.2,3-1.7,3.8-2.4c-3.2-0.3-2-0.6-3.2-1.1c-1.3-0.5-0.7-2.4-1.7-3.5
			c-1-1.1-0.5-2.8-0.5-2.9c-2,0.4-4.5,1.7-6.6,3.6c-2.4,2.3-4.5,5.7-9.7,11.1c1.5,1.7,3.6,3.3,6.7,4.2c0.8-2.3,1.9-4.6,3.6-7.5
			c0,0,1.4,6.1,0.3,13.9l0,0c0,0,2.9,2.7,8.5-0.5C50.8,19.2,50.1,13.8,52.6,12z"/>
	</g>
	<path id="XMLID_70_" class="st4" d="M54.7,2.9c0,0-2.2-0.5-2.6-0.3c-0.5,0.2,0.7,1.3,0.6,1.9s-0.2,2,0.5,2.6
		c0.7,0.6,1.9,1.1,2.6,1.4c0.8,0.2,1.6-0.3,1.2-1.2c-0.4-0.9-0.2-1.9-0.7-2.6C55.6,3.7,54.7,2.9,54.7,2.9z"/>
	<g id="XMLID_65_">
		<path id="XMLID_68_" class="st5" d="M53.4,88.9c15.4,11.6,24.4,12,24.4,12l0,0c0.4-0.8,1.2-1.5,2.1-1.8c0.5-0.2,1-0.3,1.4-0.5
			c-0.8-3.4-5.9-8.1-9.9-11.3c-5.2-4.1-18-9.8-27.4-22.8c-5.9-8.1-6.7-23.5-5-32c1-5,1.5-8.2,2.7-11.5c-1.6-0.4-2.9-1.1-4.1-1.9
			c-2.6,5-6.4,14.6-6.8,27.6C30.1,66.3,38,77.3,53.4,88.9z"/>
		<path id="XMLID_66_" class="st6" d="M77.2,102.4c0-0.4,0.1-0.9,0.5-1.5l0,0c0,0-9-0.4-24.4-12C38,77.3,30.1,66.3,30.6,46.7
			c0.3-13,4.2-22.6,6.8-27.6c-1-0.7-1.9-1.5-2.6-2.3c-1.4,1.5-3,3.1-4.9,4.8c-10,9.2-12.3,25-7.5,41.9c7.7,27.1,32.2,35.4,42,38
			c6.9,1.8,10.8,2.3,13.4,1.5C77.5,103,77.3,102.7,77.2,102.4z"/>
	</g>
	<g id="XMLID_61_">
		<path id="XMLID_63_" class="st5" d="M99.4,91.5L99.4,91.5c0.2-0.6,0.6-1.2,1.1-1.8c0.3-0.5,0.8-0.7,1.2-0.8c-1.7-3.1-8-6.2-12.9-8
			c-6.2-2.4-18-4.4-30.9-14.1c-8-6-15.4-20.4-16.3-29c-0.2-1.7-0.3-3.3-0.5-4.7c-1.7,7.5-0.6,20.1,3.5,28.3
			C54.5,78.9,99.4,91.5,99.4,91.5z"/>
		<path id="XMLID_62_" class="st6" d="M99.4,91.5L99.4,91.5c0,0-44.9-12.6-54.8-30.2c0.6,1.2,1.2,2.3,1.9,3.2
			c9.4,13,22,17.9,27.2,21.9c3.3,2.6,7.3,6.1,9.1,9.2c1.5,0.1,2.9,0.2,4.2,0.3c7.3,0.4,11-0.3,13-1.8c-0.1-0.2-0.3-0.4-0.4-0.6
			C99.1,92.8,99.2,92.2,99.4,91.5z"/>
	</g>
	<g id="XMLID_56_">
		<path id="XMLID_59_" class="st5" d="M68.5,56c16.8,9,52.8,15.6,57.6,22.3c0.2-0.3,0.3-0.5,0.4-0.8c0.2-0.5,0.8-1.1,1.5-1.6
			c-0.3-2.3-1.7-5.1-4.9-7.4c-5.1-3.7-13.7-8-29.5-12.3c-25.8-7-35.2-18.5-39.5-28.8c-0.1-0.2-0.2-0.4-0.2-0.6
			c-1.7,1-3.2,1.4-4.4,1.5l0,0C49.4,28.4,51.7,47,68.5,56z"/>
		<path id="XMLID_57_" class="st6" d="M68.5,56c-16.8-9-19.1-27.6-19.1-27.6l0,0c-2.7,0.3-4.1-1-4.1-1l0,0c-0.2,1.2-0.4,2.4-0.7,3.6
			c-2.4,9.3,4.5,26,14.7,33.7c17.4,13.1,45.5,16.6,53.1,17.4c5.6,0.6,10.6-0.2,13.2-1.4c-0.4-1.1,0-1.8,0.4-2.4
			C121.3,71.6,85.3,65,68.5,56z"/>
	</g>
	<g id="XMLID_51_">
		
			<linearGradient id="XMLID_2_" gradientUnits="userSpaceOnUse" x1="58.4384" y1="86.8381" x2="126.1189" y2="86.8381" gradientTransform="matrix(1 0 0 -1 0 122)">
			<stop  offset="0" style="stop-color:#6CC28D"/>
			<stop  offset="0.4888" style="stop-color:#99D6A5"/>
			<stop  offset="1" style="stop-color:#174E48"/>
		</linearGradient>
		<path id="XMLID_54_" class="st7" d="M59.8,7.5l2.7,0.2l-4.1,3.4c3-0.5,6-0.8,9.1-0.8c28.1,0,50.9,22.4,50.9,50.1
			c0,0.8,0,1.7-0.1,2.5c2.3,1.2,4.3,2.4,6.1,3.7c0.4,0.3,0.8,0.6,1.2,0.9c0.3-2.3,0.4-4.7,0.4-7.1c0-31.8-26.2-57.6-58.6-57.6
			c-3.1,0-6.2,0.2-9.1,0.7C59.2,4.7,59.8,6.1,59.8,7.5z"/>
		
			<linearGradient id="XMLID_3_" gradientUnits="userSpaceOnUse" x1="9.0054" y1="57.0877" x2="120.7768" y2="57.0877" gradientTransform="matrix(1 0 0 -1 0 122)">
			<stop  offset="0" style="stop-color:#6CC28D"/>
			<stop  offset="0.4888" style="stop-color:#99D6A5"/>
			<stop  offset="1" style="stop-color:#174E48"/>
		</linearGradient>
		<path id="XMLID_52_" class="st8" d="M116.4,84.8L116.4,84.8c-1.4,0-2.8-0.1-4.1-0.2c0,0,0,0,0,0c-8.7,15.5-25.4,26-44.6,26
			c-28.1,0-50.9-22.4-50.9-50.1c0-3.4,0.3-6.7,1-9.8c-0.2-3.9-0.1-7.7,0.5-11.2c1.3-7.9,4.8-14.6,10-19.5c1.7-1.6,3.3-3.2,4.8-4.7
			l0,0c1.2-1.2,2.2-2.3,3-3.3C19.8,22.1,9,40,9,60.4C9,92.2,35.2,118,67.6,118c23.6,0,43.9-13.7,53.2-33.5
			C119.4,84.6,117.9,84.8,116.4,84.8z"/>
	</g>
	<path id="XMLID_48_" class="st1" d="M81.2,98.6c-0.4,0.2-0.9,0.3-1.4,0.5c-1.5,0.5-2.6,2.4-2.5,3.3c0,0.4,0.3,0.6,0.6,0.8
		c0.6-0.2,1.2-0.4,1.6-0.8c0.5-0.3,0.9-0.8,1.3-1.3c0.3-0.4,0.4-0.8,0.5-1.3C81.3,99.5,81.3,99,81.2,98.6z"/>
</g>
<g>
	<path d="M147,106.3c0.1-0.5,0.1-6.6,0.1-9.9v-2.9c-2.5,0-5.6,0.1-6,0.2v-2c0.6,0.2,5.9,0.2,6.1,0.2h1.9c0.4,0,5.2-0.1,5.9-0.2v2
		c0-0.1-4.1-0.2-5.9-0.2v3.2c0,4.2,0.2,9.1,0.3,9.5C149.5,106.3,147,106.3,147,106.3z"/>
	<path d="M158.2,106.3c0-0.9,0.1-5.7,0.1-6.3v-2.2c0-0.4-0.1-5.5-0.1-6h2.4c-0.1,0.4-0.1,4.6-0.1,5v1.5l9.4-0.4v-1.6
		c0-0.3-0.1-4.1-0.1-4.5h2.4c-0.1,0.5-0.2,6.1-0.2,6.6v2.1c0,0.3,0.1,5.5,0.1,5.8h-2.3c0.1-0.7,0.1-4.4,0.1-4.8v-2.1l-9.4,0.4v1.3
		c0,0.9,0.1,4.7,0.1,5.2L158.2,106.3L158.2,106.3z"/>
	<path d="M186,106.6c-0.7,0-7.4-0.2-7.8-0.2c0.1-1.1,0.1-5.5,0.1-6v-2.7c0-0.3,0-5.3-0.1-5.7c0.5,0,6.3-0.3,7.4-0.4l0.1,1.8
		c-1,0-4.9,0.1-5.3,0.1v5.1c0.4,0,3.2-0.1,4.6-0.2l0.1,1.8c-0.7,0-4.2-0.1-4.7-0.1v4.9c0.5,0,3.5,0.1,5.6-0.1L186,106.6z"/>
	<path d="M196,106.3c0.4-0.9,4.9-14.2,5-14.7h0.1c0.7,1.3,4.7,8.9,5.3,10c0.7-1.2,5.3-9,5.6-9.6h0.1c0.7,1.7,4.5,12,5.4,14.2l-2,0.8
		c-0.5-1.6-3.5-10.2-3.8-11.1c-0.7,1.1-4.6,7.7-5.5,9.2h0c-1.2-2.3-3.8-7.2-4.8-9c-0.4,1.3-3.1,10.1-3.3,10.9L196,106.3z"/>
	<path d="M222.3,96.8c0,3.4,0.2,4.9,1,6.3c0.9,1.4,2.1,2,3.7,2c1.9,0,3-0.9,3.7-2c1-1.5,1-4,1-7.3v-0.7c0-1.4-0.1-2.7-0.1-3.4h2.2
		c0,0.5,0,1.8,0,3.5v1c0,4-0.3,6.5-1.9,8.4c-1.3,1.5-2.9,2.2-5.2,2.2c-1.2,0-3.5-0.2-5.1-2.5c-1-1.5-1.5-3.2-1.5-8.2v-1.1
		c0-1,0-2.5,0-2.9h2.2c0,0.5-0.1,1.5-0.1,3.4L222.3,96.8L222.3,96.8z"/>
	<path d="M238.5,105c2.2-0.4,5.1-1.3,5.1-3c0-1.1-0.8-1.6-2.4-2.4c-1.9-0.9-3.3-1.8-3.3-3.3c0-2.3,3.4-4.3,6.5-4.9l0.5,1.7
		c-1.4,0.2-4.7,1-4.7,2.8c0,1.1,1.6,1.7,2.5,2.2c1.7,0.9,3.1,1.6,3.1,3.3c0,2.1-2.5,4.3-6.8,5.2L238.5,105z"/>
	<path d="M252.9,100.1c0,2.1,0.1,5.8,0.1,6.3h-2.3c0-0.9,0.1-5.7,0.1-6.3v-2.2c0-0.4-0.1-5.5-0.1-6h2.4c-0.1,0.4-0.1,3.5-0.1,6
		L252.9,100.1L252.9,100.1z"/>
	<path d="M269.5,106.5c-0.4,0.1-1.4,0.2-2.8,0.2c-7.5,0-9.4-4.1-9.4-6.1c0-3.5,3.3-7.7,10.9-9.1l0.3,1.8c-4.8,0.6-9,3.3-9,6.9
		c0,2.4,2.1,4.7,7.3,4.7c0.9,0,1.8-0.1,2.3-0.2L269.5,106.5z"/>
	<path d="M277.9,105.7c1.2-2.1,7.5-13.8,8-14.6h0.1c1.9,2.9,7.1,12.3,8.6,14.4l-2,1.2c-0.4-0.8-2.7-4.9-2.9-5.2l-7.5,0.3
		c-0.3,0.7-2,4.3-2.3,5L277.9,105.7z M288.9,100c-0.2-0.5-2.8-5.1-3-5.5c-0.3,0.5-2.7,5.4-2.9,5.7L288.9,100z"/>
	<path d="M300.3,91.9c-0.1,0.5-0.2,4.5-0.2,7.1v5.7c0.5,0,3.2,0,5.5-0.1v1.9c-0.7,0-7.3-0.2-7.8-0.2c0.2-1.1,0.2-5.5,0.2-6v-2.7
		c0-0.3-0.1-5.3-0.1-5.7H300.3z"/>
	<path d="M310,96.4c0-0.6-0.1-4.1-0.1-4.5c1.2,0,2.6,0,3.5,0.1c4.5,0.3,5.2,2,5.2,3.2c0,0.8-0.6,2.4-2.9,3.3v0.1
		c1.6,0.2,3.6,1.3,3.6,3.2c0,2.8-3.3,4.9-8.9,4.9h-0.4c0.1-1.1,0.1-7.4,0.1-7.8V96.4z M312,98.1c2.4,0,4.4-1.4,4.4-2.8
		c0-1.8-2.8-2.1-4.4-2.1V98.1z M312,104.9c2.5-0.2,4.9-1.1,4.9-3.2c0-1.6-2.2-2.4-4.9-2.3V104.9z"/>
	<path d="M325.3,96.8c0,3.4,0.2,4.9,1,6.3c0.9,1.4,2.1,2,3.7,2c1.9,0,3-0.9,3.7-2c1-1.5,1-4,1-7.3v-0.7c0-1.4-0.1-2.7-0.1-3.4h2.2
		c0,0.5,0,1.8,0,3.5v1c0,4-0.3,6.5-1.9,8.4c-1.3,1.5-2.9,2.2-5.2,2.2c-1.2,0-3.5-0.2-5.1-2.5c-1-1.5-1.5-3.2-1.5-8.2v-1.1
		c0-1,0-2.5,0-2.9h2.2c0,0.5-0.1,1.5-0.1,3.4L325.3,96.8L325.3,96.8z"/>
	<path d="M339.4,106.3c0.4-0.9,4.9-14.2,5-14.7h0.1c0.7,1.3,4.7,8.9,5.3,10c0.7-1.2,5.3-9,5.6-9.6h0.1c0.7,1.7,4.5,12,5.4,14.2
		l-2,0.8c-0.5-1.6-3.5-10.2-3.8-11.1c-0.7,1.1-4.6,7.7-5.5,9.2h-0.1c-1.2-2.3-3.8-7.2-4.8-9c-0.4,1.3-3.1,10.1-3.3,10.9L339.4,106.3
		z"/>
	<path d="M372.1,97.2c0-0.4,0-4.8-0.1-5.4c1.3,0,3.5,0,5.5,0.1c7.2,0.6,7.9,4,7.9,5.4c0,6.6-7.5,9-13.3,9c0.1-1,0.2-6.1,0.2-6.6
		V97.2z M374.2,104.7c5.9-0.4,8.9-3.7,8.9-6.7c0-3.2-3.3-4.5-8.9-4.4V104.7z"/>
	<path d="M391.6,100.1c0,2.1,0.1,5.8,0.1,6.3h-2.3c0.1-0.9,0.1-5.7,0.1-6.3v-2.2c0-0.4-0.1-5.5-0.1-6h2.4c-0.1,0.4-0.1,3.5-0.1,6
		L391.6,100.1L391.6,100.1z"/>
	<path d="M408.8,106c-1,0.4-3,0.7-4.9,0.7c-5,0-8-2.6-8-6.1c0-2.4,2.6-7,10.7-9.2l0.4,1.9c-4.8,0.9-8.9,4-8.9,7.3
		c0,2.2,1.8,4.5,6.2,4.5c0.9,0,1.8-0.1,2.3-0.3v-3.4c0-0.6,0-1.3-0.1-1.4h2.2v3.1C408.8,103.9,408.8,105.8,408.8,106z"/>
	<path d="M415.9,100.1c0,2.1,0.1,5.8,0.1,6.3h-2.3c0.1-0.9,0.1-5.7,0.1-6.3v-2.2c0-0.4-0.1-5.5-0.1-6h2.4c-0.1,0.4-0.1,3.5-0.1,6
		L415.9,100.1L415.9,100.1z"/>
	<path d="M424.9,106.3c0.1-0.5,0.2-6.6,0.2-9.9v-2.9c-2.5,0-5.6,0.1-6,0.2v-2c0.6,0.2,5.9,0.2,6.1,0.2h1.9c0.4,0,5.2-0.1,5.9-0.2v2
		c-0.1-0.1-4.1-0.2-5.9-0.2v3.2c0,4.2,0.2,9.1,0.3,9.5C427.4,106.3,424.9,106.3,424.9,106.3z"/>
	<path d="M432.2,105.7c1.2-2.1,7.5-13.8,8-14.6h0.1c1.9,2.9,7.1,12.3,8.6,14.4l-2,1.2c-0.4-0.8-2.7-4.9-2.9-5.2l-7.5,0.3
		c-0.3,0.7-2,4.3-2.3,5L432.2,105.7z M443.1,100c-0.2-0.5-2.8-5.1-3-5.5c-0.3,0.5-2.7,5.4-2.9,5.7L443.1,100z"/>
	<path d="M454.6,91.9c-0.1,0.5-0.2,4.5-0.2,7.1v5.7c0.5,0,3.2,0,5.5-0.1v1.9c-0.7,0-7.3-0.2-7.8-0.2c0.2-1.1,0.2-5.5,0.2-6v-2.7
		c0-0.3,0-5.3-0.1-5.7H454.6z"/>
	<path d="M471.5,106.3c0-0.9,0.1-5.9,0.1-7.3v-2.3c0-0.5-0.1-4.6-0.1-4.9c0.9,0,3,0,4.4,0.2c3,0.5,4.8,1.8,4.8,4c0,3-2.9,5.2-7,6
		v1.2c0,0.4,0,2.7,0,3.1L471.5,106.3L471.5,106.3z M473.7,100.5c2.6-0.5,4.8-1.7,4.8-4.1c0-0.8-0.5-2.8-4.8-2.8V100.5z"/>
	<path d="M487.3,100c0,0.8,0.1,6,0.1,6.3h-2.3c0.1-0.5,0-7.1,0-7.5v-1.7c0-0.6,0-4.9-0.1-5.3c1,0,3-0.1,4.8,0.2
		c2.9,0.3,4.6,1.5,4.6,3.3c0,1.7-1.3,3.2-3.1,4.2c0.6,0.8,4.5,5,5.1,5.6l-1.7,1.5c-0.2-0.3-5.3-6.4-5.9-7.3c1.1-0.6,3.3-1.7,3.3-3.8
		c0-1-0.8-2.2-4.9-2.2L487.3,100L487.3,100z"/>
	<path d="M508,106.6c-0.7,0-7.4-0.2-7.8-0.2c0.1-1.1,0.1-5.5,0.1-6v-2.7c0-0.3,0-5.3-0.1-5.7c0.5,0,6.3-0.3,7.4-0.4l0.1,1.8
		c-1,0-4.9,0.1-5.3,0.1v5.1c0.4,0,3.2-0.1,4.6-0.2l0.1,1.8c-0.7,0-4.2-0.1-4.7-0.1v4.9c0.5,0,3.5,0.1,5.6-0.1L508,106.6z"/>
	<path d="M512.4,105c2.2-0.4,5.1-1.3,5.1-3c0-1.1-0.8-1.6-2.4-2.4c-1.9-0.9-3.3-1.8-3.3-3.3c0-2.3,3.4-4.3,6.5-4.9l0.5,1.7
		c-1.4,0.2-4.7,1-4.7,2.8c0,1.1,1.6,1.7,2.5,2.2c1.7,0.9,3.1,1.6,3.1,3.3c0,2.1-2.5,4.3-6.8,5.2L512.4,105z"/>
	<path d="M524.1,105c2.2-0.4,5.1-1.3,5.1-3c0-1.1-0.8-1.6-2.4-2.4c-1.9-0.9-3.3-1.8-3.3-3.3c0-2.3,3.4-4.3,6.5-4.9l0.5,1.7
		c-1.4,0.2-4.7,1-4.7,2.8c0,1.1,1.6,1.7,2.5,2.2c1.7,0.9,3.1,1.6,3.1,3.3c0,2.1-2.5,4.3-6.8,5.2L524.1,105z"/>
</g>
</svg>
