<?xml version="1.0" encoding="utf-8"?>
<svg version="1.1" width="48" height="48" xmlns="http://www.w3.org/2000/svg" xmlns:xlink="http://www.w3.org/1999/xlink" x="0px" y="0px" viewBox="0 0 48 48" style="enable-background:new 0 0 48 48;" xml:space="preserve">
<style type="text/css">
	.st0{fill:#018837;}
</style>
<path id="Present" class="st0" d="M38.8,40.9H9.3c-1.1,0-2-0.9-2-2V23.4H4.1v-7.6c0-1.1,0.9-2,2-2h9.6c-2.9-1.3-5.4-3.3-7.4-5.8
	l1.2-1c1.8,2.3,4.2,4.1,6.9,5.3c-0.6-0.6-1-1.4-1.1-2.2c-0.4-1.7,0.7-3.5,2.4-4c1.2-0.5,2.6-0.4,3.7,0.3c1.3,1,2.2,2.3,2.7,3.9
	c0.5-1.5,1.4-2.9,2.7-3.9c1.1-0.8,2.5-0.9,3.7-0.4l0,0c1.7,0.6,2.7,2.3,2.3,4c-0.2,0.8-0.5,1.6-1.1,2.2c2.7-1.2,5.1-3,6.9-5.3l1.2,1
	c-2,2.5-4.5,4.5-7.5,5.8H42c1.1,0,2,0.9,2,2v7.6h-3.2v15.5C40.8,40,39.9,40.9,38.8,40.9z M8.9,23.4v15.5c0,0.2,0.2,0.4,0.4,0.4h29.5
	c0.2,0,0.4-0.2,0.4-0.4V23.4H24.8v15.9h-1.6V23.4H8.9z M40.8,21.8h1.6v-6c0-0.2-0.2-0.4-0.4-0.4H24.8v6.4h-1.6v-6.4H6.1
	c-0.2,0-0.4,0.2-0.4,0.4v6H40.8z M28.9,7.4c-0.4,0-0.9,0.1-1.2,0.4c-1.7,1.6-2.7,3.7-2.8,6c3.6-0.3,5.9-2.1,6.3-3.9
	c0.2-1-0.4-2-1.3-2.2l0,0C29.5,7.5,29.2,7.5,28.9,7.4z M19.2,7.4c-0.3,0-0.7,0.1-1,0.2c-1,0.3-1.6,1.3-1.4,2.2
	c0.4,1.8,2.7,3.6,6.4,3.9c-0.1-2.3-1.1-4.4-2.8-5.9C20.1,7.6,19.7,7.5,19.2,7.4z"/>
</svg>
