<?xml version="1.0" encoding="utf-8"?>
<svg version="1.1" id="Layer_1"  width="48" height="48" xmlns="http://www.w3.org/2000/svg" xmlns:xlink="http://www.w3.org/1999/xlink" x="0px" y="0px" viewBox="0 0 48 48" style="enable-background:new 0 0 48 48;" xml:space="preserve">
<path style="fill:#018837;" d="M38,44H10c-3.3,0-6-2.7-6-6v-8c0-1.1,0.9-2,2-2s2,0.9,2,2v8c0,1.1,0.9,2,2,2h28c1.1,0,2-0.9,2-2v-8
	c0-1.1,0.9-2,2-2s2,0.9,2,2v8C44,41.3,41.3,44,38,44z"/>
<path style="fill:#70C290;" d="M33.4,12.6l-8-8c-0.8-0.8-2-0.8-2.8,0c0,0,0,0,0,0l-8,8c-0.8,0.8-0.8,2.1,0,2.8c0.8,0.8,2,0.8,2.8,0
	l4.6-4.6V30c0,1.1,0.9,2,2,2s2-0.9,2-2V10.8l4.6,4.6c0.8,0.8,2.1,0.8,2.8,0C34.2,14.6,34.2,13.4,33.4,12.6z"/>
</svg>
